G04 EAGLE Gerber X2 export*
%TF.Part,Single*%
%TF.FileFunction,Copper,L1,Top,Mixed*%
%TF.FilePolarity,Positive*%
%TF.GenerationSoftware,Autodesk,EAGLE,9.0.1*%
%TF.CreationDate,2018-06-19T07:34:03Z*%
G75*
%MOMM*%
%FSLAX34Y34*%
%LPD*%
%AMOC8*
5,1,8,0,0,1.08239X$1,22.5*%
G01*
%ADD10C,1.524000*%
%ADD11P,1.649562X8X112.500000*%
%ADD12P,1.924489X8X112.500000*%
%ADD13P,1.429621X8X292.500000*%
%ADD14P,1.429621X8X22.500000*%
%ADD15P,1.429621X8X202.500000*%
%ADD16R,1.498600X1.498600*%
%ADD17C,1.498600*%
%ADD18R,3.000000X1.200000*%
%ADD19C,0.508000*%
%ADD20R,1.300000X1.300000*%
%ADD21C,0.254000*%


D10*
X601980Y190500D02*
X617220Y190500D01*
X617220Y165100D02*
X601980Y165100D01*
X601980Y139700D02*
X617220Y139700D01*
X617220Y114300D02*
X601980Y114300D01*
X601980Y88900D02*
X617220Y88900D01*
D11*
X660400Y88900D03*
X635000Y88900D03*
X660400Y114300D03*
X635000Y114300D03*
X660400Y139700D03*
X635000Y139700D03*
X660400Y165100D03*
X635000Y165100D03*
X660400Y190500D03*
X635000Y190500D03*
D12*
X304800Y342900D03*
X330200Y342900D03*
X355600Y342900D03*
X381000Y342900D03*
X406400Y342900D03*
X431800Y342900D03*
D10*
X50800Y312420D02*
X50800Y297180D01*
X76200Y297180D02*
X76200Y312420D01*
X101600Y312420D02*
X101600Y297180D01*
D11*
X76200Y50800D03*
X50800Y50800D03*
X76200Y76200D03*
X50800Y76200D03*
X76200Y101600D03*
X50800Y101600D03*
X76200Y127000D03*
X50800Y127000D03*
X76200Y152400D03*
X50800Y152400D03*
X76200Y177800D03*
X50800Y177800D03*
X76200Y203200D03*
X50800Y203200D03*
X76200Y228600D03*
X50800Y228600D03*
D13*
X254000Y342900D03*
X254000Y266700D03*
D14*
X114300Y177800D03*
X190500Y177800D03*
X114300Y203200D03*
X190500Y203200D03*
X114300Y228600D03*
X190500Y228600D03*
D13*
X495300Y127000D03*
X495300Y50800D03*
X533400Y152400D03*
X533400Y76200D03*
D15*
X114300Y266700D03*
X38100Y266700D03*
D14*
X114300Y50800D03*
X190500Y50800D03*
X114300Y76200D03*
X190500Y76200D03*
X114300Y101600D03*
X190500Y101600D03*
X114300Y127000D03*
X190500Y127000D03*
X114300Y152400D03*
X190500Y152400D03*
D10*
X570992Y269494D02*
X586232Y269494D01*
X586232Y314706D02*
X570992Y314706D01*
X521208Y269494D02*
X505968Y269494D01*
X505968Y314706D02*
X521208Y314706D01*
X152908Y327406D02*
X137668Y327406D01*
X137668Y282194D02*
X152908Y282194D01*
X202692Y327406D02*
X217932Y327406D01*
X217932Y282194D02*
X202692Y282194D01*
D16*
X152400Y228600D03*
D17*
X152400Y203200D03*
X152400Y177800D03*
X152400Y152400D03*
X152400Y127000D03*
X152400Y101600D03*
X152400Y76200D03*
X152400Y50800D03*
X228600Y50800D03*
X228600Y76200D03*
X228600Y101600D03*
X228600Y127000D03*
X228600Y152400D03*
X228600Y177800D03*
X228600Y203200D03*
X228600Y228600D03*
D18*
X285300Y223100D03*
X285300Y203100D03*
X285300Y183100D03*
X285300Y163100D03*
X285300Y143100D03*
X285300Y123100D03*
X285300Y103100D03*
X285300Y83100D03*
X449300Y223100D03*
X449300Y203100D03*
X449300Y183100D03*
X449300Y163100D03*
X449300Y143100D03*
X449300Y123100D03*
X449300Y103100D03*
X449300Y83100D03*
D19*
X438150Y82550D02*
X527050Y82550D01*
X533400Y76200D01*
X449300Y83100D02*
X438150Y82550D01*
X635000Y88900D02*
X635000Y114300D01*
X635000Y139700D02*
X635000Y165100D01*
X635000Y190500D01*
X635000Y139700D02*
X635000Y114300D01*
X590550Y76200D02*
X533400Y76200D01*
X590550Y76200D02*
X596900Y69850D01*
X622300Y69850D01*
X635000Y82550D01*
X635000Y88900D01*
X228600Y50800D02*
X209550Y69850D01*
X209550Y158750D01*
X228600Y177800D01*
X76200Y304800D02*
X76200Y311150D01*
X95250Y330200D01*
X139700Y330200D01*
X145288Y327406D01*
X50800Y228600D02*
X50800Y203200D01*
X50800Y177800D02*
X50800Y152400D01*
X50800Y76200D02*
X50800Y50800D01*
X50800Y101600D02*
X50800Y127000D01*
X50800Y101600D02*
X50800Y76200D01*
X50800Y127000D02*
X50800Y152400D01*
X50800Y177800D02*
X50800Y203200D01*
X76200Y254000D02*
X76200Y304800D01*
X76200Y254000D02*
X50800Y228600D01*
X209550Y196850D02*
X228600Y177800D01*
X209550Y196850D02*
X209550Y254000D01*
X139700Y323850D01*
X145288Y327406D01*
X50800Y50800D02*
X82550Y19050D01*
X438150Y342900D02*
X508000Y273050D01*
X438150Y342900D02*
X431800Y342900D01*
X508000Y273050D02*
X513588Y269494D01*
X635000Y196850D02*
X635000Y190500D01*
X514350Y266700D02*
X513588Y269494D01*
X633603Y214503D02*
X635000Y213106D01*
X633603Y214503D02*
X578612Y269494D01*
X635000Y213106D02*
X635000Y190500D01*
X685800Y76200D02*
X628650Y19050D01*
X685800Y76200D02*
X685800Y203200D01*
X673100Y215900D01*
X671703Y214503D01*
X633603Y214503D01*
X628650Y19050D02*
X82550Y19050D01*
X438150Y127000D02*
X495300Y127000D01*
X449300Y123100D02*
X438150Y127000D01*
X292100Y146050D02*
X234950Y146050D01*
X228600Y152400D01*
X285300Y143100D02*
X292100Y146050D01*
X292100Y101600D02*
X228600Y101600D01*
X285300Y103100D02*
X292100Y101600D01*
X292100Y127000D02*
X228600Y127000D01*
X285300Y123100D02*
X292100Y127000D01*
X38100Y266700D02*
X38100Y292100D01*
X50800Y304800D01*
X266700Y228600D02*
X292100Y228600D01*
X266700Y228600D02*
X215900Y279400D01*
X285300Y223100D02*
X292100Y228600D01*
X215900Y279400D02*
X210312Y282194D01*
X50800Y304800D02*
X50800Y311150D01*
X88900Y349250D01*
X152400Y349250D01*
X215900Y285750D01*
X210312Y282194D01*
X247650Y184150D02*
X292100Y184150D01*
X247650Y184150D02*
X228600Y203200D01*
X285300Y183100D02*
X292100Y184150D01*
X273050Y266700D02*
X254000Y266700D01*
X273050Y266700D02*
X320040Y229870D01*
X320040Y198120D01*
X298450Y184150D01*
X285300Y183100D01*
X228600Y203200D02*
X228600Y228600D01*
X114300Y266700D02*
X114300Y292100D01*
X101600Y304800D01*
X190500Y203200D02*
X190500Y177800D01*
X190500Y203200D02*
X190500Y228600D01*
X190500Y152400D02*
X190500Y127000D01*
X190500Y101600D02*
X190500Y76200D01*
X208280Y33020D02*
X252730Y33020D01*
X208280Y33020D02*
X190500Y50800D01*
X190500Y76200D01*
X190500Y101600D02*
X190500Y127000D01*
X190500Y152400D02*
X190500Y177800D01*
X152400Y266700D02*
X114300Y266700D01*
X152400Y266700D02*
X190500Y228600D01*
X660400Y190500D02*
X660400Y165100D01*
X660400Y139700D02*
X660400Y114300D01*
X622300Y50800D02*
X495300Y50800D01*
X622300Y50800D02*
X660400Y88900D01*
X660400Y114300D01*
X660400Y139700D02*
X660400Y165100D01*
X285300Y83100D02*
X255820Y83100D01*
X255270Y82550D01*
D20*
X255270Y82550D03*
D19*
X264160Y41910D02*
X252730Y33020D01*
X264160Y41910D02*
X273050Y50800D01*
X495300Y50800D01*
D20*
X264160Y41910D03*
D19*
X438150Y165100D02*
X508000Y165100D01*
X527050Y184150D01*
X558800Y184150D01*
X603250Y139700D01*
X609600Y139700D01*
X449300Y163100D02*
X438150Y165100D01*
X385000Y63500D02*
X381000Y63500D01*
X241300Y63500D01*
X228600Y76200D01*
X447800Y101600D02*
X449300Y103100D01*
X447800Y101600D02*
X419100Y101600D01*
X385000Y67500D01*
X385000Y63500D01*
X385000Y67500D02*
X381000Y63500D01*
X449300Y103100D02*
X509500Y103100D01*
X533400Y127000D01*
X533400Y152400D01*
X571500Y88900D02*
X609600Y88900D01*
X571500Y88900D02*
X533400Y127000D01*
X508000Y146050D02*
X438150Y146050D01*
X508000Y146050D02*
X533400Y171450D01*
X546100Y171450D01*
X603250Y114300D01*
X609600Y114300D01*
X445655Y144064D02*
X438150Y146050D01*
X445655Y144064D02*
X449300Y143100D01*
X304800Y342900D02*
X254000Y342900D01*
X323850Y361950D02*
X438150Y361950D01*
X323850Y361950D02*
X304800Y342900D01*
X304800Y298450D01*
X482600Y317500D02*
X508000Y317500D01*
X482600Y317500D02*
X438150Y361950D01*
X508000Y317500D02*
X513588Y314706D01*
X368300Y234950D02*
X304800Y298450D01*
X368300Y190500D02*
X414736Y144064D01*
X445655Y144064D01*
X368300Y190500D02*
X368300Y234950D01*
X438150Y184150D02*
X508000Y184150D01*
X520700Y196850D01*
X571500Y196850D01*
X603250Y165100D01*
X609600Y165100D01*
X449300Y183100D02*
X438150Y184150D01*
X336550Y190500D02*
X298450Y165100D01*
X336550Y190500D02*
X336550Y241300D01*
X234950Y330200D01*
X285300Y163100D02*
X298450Y165100D01*
X234950Y330200D02*
X234950Y349250D01*
X266700Y381000D01*
X444500Y381000D01*
X482600Y342900D01*
X520700Y342900D01*
X546100Y317500D01*
X546100Y241300D01*
X596900Y190500D01*
X609600Y190500D01*
X438150Y228600D02*
X438150Y260350D01*
X355600Y342900D01*
X438150Y228600D02*
X449300Y223100D01*
X431800Y203200D02*
X330200Y304800D01*
X330200Y342900D01*
X431800Y203200D02*
X449300Y203100D01*
X114300Y50800D02*
X76200Y50800D01*
X114300Y50800D02*
X152400Y50800D01*
X114300Y76200D02*
X76200Y76200D01*
X114300Y76200D02*
X152400Y76200D01*
X114300Y101600D02*
X76200Y101600D01*
X114300Y101600D02*
X152400Y101600D01*
X114300Y127000D02*
X76200Y127000D01*
X114300Y127000D02*
X152400Y127000D01*
X114300Y152400D02*
X76200Y152400D01*
X114300Y152400D02*
X152400Y152400D01*
X114300Y177800D02*
X76200Y177800D01*
X114300Y177800D02*
X152400Y177800D01*
X114300Y203200D02*
X76200Y203200D01*
X114300Y203200D02*
X152400Y203200D01*
X114300Y228600D02*
X76200Y228600D01*
X114300Y228600D02*
X152400Y228600D01*
D21*
X0Y0D02*
X711000Y0D01*
X711000Y403100D01*
X0Y403100D01*
X0Y0D01*
M02*
