M48
;GenerationSoftware,Autodesk,EAGLE,9.0.1*%
;CreationDate,2018-08-21T15:40:23Z*%
FMAT,2
ICI,OFF
METRIC,TZ,000.000
T4C0.350
T3C0.813
T2C0.991
T1C1.016
%
G90
M71
T1
X7620Y12700
X57861Y31471
X60960Y19050
X60960Y16510
X60960Y13970
X60960Y11430
X60960Y8890
X66040Y8890
X63500Y8890
X66040Y11430
X63500Y11430
X66040Y13970
X63500Y13970
X66040Y16510
X63500Y16510
X66040Y19050
X63500Y19050
X30480Y34290
X33020Y34290
X35560Y34290
X38100Y34290
X40640Y34290
X43180Y34290
X5080Y30480
X7620Y30480
X10160Y30480
X7620Y5080
X5080Y5080
X7620Y7620
X5080Y7620
X7620Y10160
X5080Y10160
X57861Y26949
X5080Y12700
X7620Y15240
X5080Y15240
X7620Y17780
X5080Y17780
X7620Y20320
X5080Y20320
X7620Y22860
X5080Y22860
X51359Y26949
X51359Y31471
X14529Y32741
X14529Y28219
X21031Y32741
X21031Y28219
T2
X15240Y5080
X15240Y7620
X15240Y10160
X15240Y12700
X15240Y15240
X15240Y17780
X15240Y20320
X15240Y22860
X22860Y5080
X22860Y7620
X22860Y10160
X22860Y12700
X22860Y15240
X22860Y17780
X22860Y20320
X22860Y22860
T3
X11430Y15240
X19050Y15240
X19050Y12700
X11430Y12700
X19050Y10160
X11430Y10160
X19050Y7620
X11430Y7620
X19050Y5080
X11430Y5080
X3810Y26670
X11430Y26670
X53340Y7620
X53340Y15240
X49530Y5080
X49530Y12700
X19050Y22860
X11430Y22860
X19050Y20320
X11430Y20320
X19050Y17780
X11430Y17780
X25400Y26670
X25400Y34290
T4
X26416Y4191
X25527Y8255
M30